<svg xmlns="http://www.w3.org/2000/svg" xmlns:xlink="http://www.w3.org/1999/xlink" xmlns:inkscape="http://www.inkscape.org/namespaces/inkscape" version="1.1" width="347.105" height="343.947" viewBox="0 0 347.105 343.947">
<defs>
<clipPath id="clip_1">
<path transform="matrix(1,0,0,-1,0,343.947)" d="M0 343.947H347.105V0H0Z"/>
</clipPath>
</defs>
<g inkscape:groupmode="layer" inkscape:label="Layer 1">
<g clip-path="url(#clip_1)">
<text xml:space="preserve" transform="matrix(1 0 -0 1 0 343.947)" font-size="187.5948" font-family="LTSaeada"><tspan y="-197.5449" x="-661.2539 -546.2583 -432.01307 -352.66047 -237.66484 -132.23656">bosque</tspan><tspan y="-31.148316" x="-661.2539 -556.576 -441.2052 -377.61058 -272.18229 -209.71321 -94.34241">natural</tspan></text>
<path transform="matrix(1,0,0,-1,321.1529,86.8595)" d="M0 0C0 19.151-.693 32.111-.693 51.263-.693 63.149-11.263 63.959-14.664 63.864-100.276 64.022-168.294 61.29-253.889 63.028-263.672 63.066-278.654 63.864-288.433 63.864-298.069 63.864-299.254 57.762-299.216 52.679-299.081-29.661-301.524-143.469-301.524-221.372-301.524-229.394-294.169-237.448-286.14-237.436-190.439-237.293-105.817-236.132-10.117-236.132-1.094-236.132 .327-232.078 .327-222.443 .327-148.596 1.927-73.825 0 0M13.903-85.115C14.352-132.427 14.609-181.942 14.661-229.256 14.672-240.87 5.688-247.746-5.899-247.719-35.335-247.598-64.773-247.462-94.205-246.893-127.862-246.352-161.525-248.8-195.194-249.147-227.532-250.254-259.877-249.995-292.222-249.874-305.847-250.228-313.428-236.598-312.673-224.217-314.038-188.426-312.098-78.993-312.688-51.529-313.033-30.041-311.656-8.327-311.852 13.162-311.993 28.762-311.894 44.366-311.79 59.967-311.721 70.295-303.299 78.662-293.014 78.572-211.619 77.235-130.185 80.344-48.768 80.156-34.724 80.25-20.678 80.296-6.633 80.261 1.757 80.241 9.558 74.551 12.473 66.695 14.069 62.393 14.833 58.034 14.759 53.409 14.515 7.236 14.012-38.94 13.564-85.113 13.677-85.114 13.79-85.115 13.903-85.115" fill="#d60036"/>
<path transform="matrix(1,0,0,-1,307.8596,159.58499)" d="M0 0C-2.82-2.254-6.003-2.39-9.213-2.249-11.753-.979-13.49 1.915-15.736 3.703-16.654 4.55-16.957 5.461-16.95 6.686-16.904 14.845-17.126 23.01-16.853 31.159-16.719 37.278-20.577 46.079-27.404 46.203-61.108 46.121-94.761 46.151-128.471 46.149-130.316 31.046-128.224 16.207-128.488 1.099-129.25-1.628-132.833-2.561-134.875-4.27-141.243-7.508-146.672 7.835-146.261 12.668-145.915 23.8-145.372 34.669-145.192 45.938-180.223 46.654-215.318 47.696-250.345 46.284-251.869 46.243-252.64 45.379-253.429 44.367-262.09 32.039-253.153 12.86-261.635-2.194-265.091-2.505-268.555-2.407-271.616-4.94-273.798-2.213-276.395 .024-276.365 3.848-277.417 18.43-277.895 33.392-270.477 46.567-264.641 58.526-252.126 63.417-239.478 63.206-208.121 63.234-176.804 63.223-145.441 63.224-146.244 67.255-146.998 71.048-147.824 75.196-183.747 74.73-219.663 73.449-255.572 75.191-266.345 77.762-272.032 89.591-274.945 99.404-276.386 104.228-278.128 109.054-276.857 114.114-276.291 116.306-276.929 118.642-274.797 120.333-270.343 124.35-264.166 124.826-259.249 121.231-259.344 113.243-258.797 105.211-256.823 97.254-251.48 96.403-249.871 89.62-244.321 89.966-211.389 91.188-178.441 90.711-145.529 92.281V120.953C-141.613 123.804-138.48 124.332-130.698 123.526-126.43 113.595-130.05 102.721-128.527 92.325-94.426 93.238-58.672 89.86-25.349 93.47-12.726 108.946-13.871 101.634-16.859 121.363-14.716 122.811-12.587 124.316-10.39 125.714-4.204 128.471 1.02 121.467 1.098 115.689 3.332 97.112-8.874 75.229-29.197 75.245-62.225 75.257-95.228 75.249-128.258 75.25V63.417C-96.425 63.25-64.756 66.79-32.948 64.231-15.602 65.011-1.866 51.868 1.365 35.246 4.402 23.271 1.686 11.783 0 0" fill="#d60036"/>
<path transform="matrix(1,0,0,-1,235.1731,212.63899)" d="M0 0C.808 11.517 1.603 22.648 2.499 34.07 3.004 39.668 9.914 38.841 13.995 39.614 16.175 39.807 16.873 39.142 17.609 37.096 22.055 25.765 21.391 14.08 19.708 2.347 30.007 1.85 40.341 .281 49.897 2.106 52.208 5.562 54.671 7.444 55.759 10.924 56.539 17.889 57.072 24.884 57.979 31.83 58.032 42.868 73.698 43.771 75.191 33.061 78.297 13.33 70.794-11.8 49.225-16.976 40.223-17.76 31.158-17.057 22.092-17.284V-26.351C45.46-21.302 75.322-33.879 75.243-60.822 75.315-71.461 75.261-82.102 75.259-92.743 75.259-94.854 74.056-96.6 72.027-97.385 67.12-99.556 61.839-100.157 58.586-95.034 56.654-92.297 55.775-89.172 55.768-85.83 55.748-76.254 55.712-66.677 55.788-57.101 55.812-54.027 53.95-51.648 53.133-48.892 43.532-45.14 32.266-44.809 21.914-44.167 21.917-59.292 21.882-74.387 21.948-89.508 21.957-91.37 21.629-92.966 20.475-94.445 19.219-96.055 18.415-98.362 16.8-99.247 13.31-100.282 8.759-99.185 4.932-99.535 3.314-96.638 2.438-93.665 2.458-90.392 2.517-75.737 2.453-61.125 2.473-46.464-6.683-46.37-26.816-39.584-31.35-49.903-34.639-56.448-36.494-63.241-35.881-70.591-35.274-77.86-34.624-85.126-33.904-92.385-33.742-94.017-34.09-95.208-35.36-96.307-38.811-99.523-41.883-104.321-47.166-100.949-50.85-98.388-51.241-94.696-51.49-90.751-51.993-82.762-52.609-74.78-53.243-66.8-58.061-51.745-47.682-36.746-34.695-29.768-23.326-23.854-10.135-27.867 2.303-26.7V-17.387C-11.443-16.006-27.918-21.232-38.849-10.519-46.608-3.3-52.628 5.895-53.258 16.816-52.754 27.01-56.915 40.007-41.816 39.202-34.847 38.201-36.29 33.91-36.839 28.578-37.416 23.88-37.158 19.219-36.103 14.632-34.344 8.04-29.439 1.63-22.805-.132-15.181-.053-7.617-.395 0 0" fill="#d60036"/>
<path transform="matrix(1,0,0,-1,87.3757,212.5983)" d="M0 0C0 10.658-.002 21.216 .001 31.862-.068 37.346 6.861 36.987 10.707 38.221 13.702 38.576 15.591 33.475 16.839 31.323 18.387 21.054 18.04 10.317 19.544-.017 29.902 1.85 40.483 .139 50.856 2.292 54.747 10.866 54.219 20.513 54.942 29.691 55.061 34.085 57.939 36.467 60.887 38.674 85.702 44.673 75.622-18.262 40.236-17.302 33.324-17.415 26.475-17.308 19.551-17.325V-26.422C42.169-21.767 72.674-32.071 72.765-58.862 73.016-64.953 72.925-71.062 73.273-77.147 74.187-93.637 78.429-88.157 67.456-101.962 65.446-102.121 63.04-102.455 60.923-100.537 59.028-98.843 55.252-98.574 55.722-95.225 55.764-83.59 55.553-71.95 55.82-60.32 55.823-53.414 50.524-47.597 44.991-46.303 36.466-46.443 27.943-45.994 19.443-46.484 19.447-61.801 19.403-77.105 19.487-92.42 18.907-99.628 9.52-102.873 3.691-100.13 .678-98.437 .006-94.587-.053-91.315 .067-76.34-.007-61.439 0-46.454-7.934-45.781-15.703-45.679-23.63-45.467-28.447-45.391-32.224-47.387-34.807-51.577-35.896-53.343-36.318-55.18-36.313-57.225-36.281-69.073-36.313-80.921-36.276-92.77-36.105-96.004-39.576-97.634-41.418-99.858-42.375-100.707-42.943-102.096-44.593-102.066-47.643-101.991-51.887-102.217-53.464-98.982-58.329-81.584-59.238-61.854-50.518-45.552-44.647-34.85-34.191-28.461-22.418-26.798-14.968-26.796-7.622-26.796-.158-26.796V-17.451C-22.835-22.413-55.525-13.068-55.722 14.423-55.517 21.715-56.225 29.105-53.62 36.082-50.707 36.905-48.021 37.782-45.274 38.367-40.705 37.909-38.306 33.158-38.636 28.692-38.565 22.606-39.007 8.498-35.047 4.076-31.93 2.581-28.864 .353-25.409-.167-16.917-.062-8.478-.497 0 0" fill="#d60036"/>
</g>
</g>
</svg>
