<svg xmlns="http://www.w3.org/2000/svg" viewBox="0 0 204.47 79.77">
  <defs>
    <style>
      .cls-1, .cls-2 {
        fill: #222221;
      }

      .cls-2 {
        fill-rule: evenodd;
      }
    </style>
  </defs>
  <g id="Capa_2" data-name="Capa 2">
    <g id="Capa_1-2" data-name="Capa 1">
      <g>
        <path class="cls-1" d="M103.05,45.87h-.67A25.15,25.15,0,0,1,87.2,40.11C80.65,34.42,78.43,25.4,78.34,25l-.15-.65h.67A25.17,25.17,0,0,1,94,30.13c6.55,5.69,8.76,14.71,8.85,15.09ZM79.56,25.46c.64,2.2,3,9.23,8.33,13.86a24.46,24.46,0,0,0,13.79,5.46c-.64-2.2-3-9.24-8.33-13.85A24.44,24.44,0,0,0,79.56,25.46Z"/>
        <path class="cls-1" d="M102.38,45.87H102l-.13-.34c-.17-.48,2.36-9.78,8.84-15.4a25.15,25.15,0,0,1,15.18-5.76h.37l.13.34c.17.48-2.36,9.78-8.84,15.4A25.17,25.17,0,0,1,102.38,45.87ZM125.2,25.45a24.1,24.1,0,0,0-13.79,5.48c-5.27,4.58-7.67,11.64-8.33,13.85a24.46,24.46,0,0,0,13.79-5.46C122.15,34.72,124.55,27.66,125.2,25.45Z"/>
        <path class="cls-1" d="M102.39,31a15.51,15.51,0,1,1,15.5-15.5A15.52,15.52,0,0,1,102.39,31Zm0-29.95a14.45,14.45,0,1,0,14.44,14.45A14.46,14.46,0,0,0,102.39,1.06Z"/>
        <polyline class="cls-2" points="119.33 51.47 117.15 51.47 103.31 63.41 88.92 51.47 83.53 51.47 99.63 65.16 99.63 79.01 104.39 79.01 104.39 64.86 119.33 51.47"/>
        <polyline class="cls-1" points="2.64 79 2.64 55.55 2.78 55.55 31.82 79.77 31.95 79.77 31.95 51.47 29.31 51.47 29.31 72.63 29.18 72.63 4.03 51.47 0 51.47 0 79 2.64 79"/>
        <path class="cls-2" d="M32.63,79h2.84l5.36-8.59H58L63.25,79H68L50.49,50.71h-.13L32.63,79m16.8-22.7L57,69.06H41.62Z"/>
        <path class="cls-1" d="M119.71,75.65c2.11,2.51,5.79,4.12,11.45,4.12,7.64,0,13.3-3.78,13.3-8.37,0-9.26-19.91-5.52-19.91-14,0-2.76,3.34-5.57,8-5.57C137,51.85,139,53,141,55.21l1.91-.8c-1.57-1.79-4.3-3.7-10.5-3.7-7.5,0-12.61,3.4-12.61,8,0,9,19.63,5.35,19.63,13.89,0,3.44-3.54,5.82-9.14,5.82A10.37,10.37,0,0,1,122,74.67l-2.24,1"/>
        <path class="cls-2" d="M144.34,79h2.94l5.52-8.59h17.73L175.91,79h4.91l-18.07-28.3h-.13L144.34,79m17.32-22.7,7.84,12.75H153.61Z"/>
        <polyline class="cls-1" points="204.47 79.01 204.47 77.65 189.16 77.65 189.16 51.48 184.38 51.48 184.38 79.01 204.47 79.01"/>
        <polyline class="cls-1" points="70.28 79.01 74.91 79.01 74.91 52.83 84.77 52.83 84.77 51.47 60.43 51.47 60.43 52.83 70.28 52.83 70.28 79.01"/>
      </g>
    </g>
  </g>
</svg>
