<svg class="new-logo-marnys-svg" xmlns="http://www.w3.org/2000/svg" width="668" height="190" viewBox="0 0 668 190" fill="none">
<path d="M328.801 158.229C333.76 158.922 334.934 164.642 331.654 167.935C335.6 169.748 335.707 175.895 331.894 178.068C331.534 178.281 329.734 179.001 329.481 179.001H320.601V158.229C323.148 158.482 326.334 157.882 328.801 158.229ZM323.614 166.602H328.801C331.174 166.602 331.174 160.909 328.801 160.909H323.614V166.602ZM323.614 176.655C327.334 176.948 333.187 176.628 331.507 171.282C331.294 170.615 329.654 169.295 329.147 169.295H323.614V176.655Z" fill="#293344"></path>
<path d="M153.37 172.975V158.229H156.05V179.002C155.584 179.002 155.077 179.082 154.61 178.935C153.424 178.548 145.304 167.349 143.638 165.442C143.264 165.016 142.824 164.482 142.304 164.256V179.002H139.625V158.229L141.798 158.563L153.37 172.975Z" fill="#293344"></path>
<path d="M283.229 158.229C289.922 159.056 290.896 168.096 284.736 169.962L290.776 179.002L287.149 178.935L281.656 170.709L278.043 170.642V179.015H275.03V158.243C277.616 158.456 280.709 157.923 283.229 158.229ZM278.043 167.949H283.229C285.469 167.949 286.229 164.496 285.483 162.669C285.296 162.189 283.936 160.909 283.563 160.909H278.03V167.949H278.043Z" fill="#293344"></path>
<path d="M492.004 158.229C498.697 159.056 499.67 168.096 493.511 169.962L499.55 179.002L495.924 178.935L490.431 170.709L486.818 170.642V179.015H483.805V158.243C486.391 158.456 489.484 157.923 492.004 158.229ZM486.805 167.949H491.991C494.231 167.949 494.991 164.496 494.244 162.669C494.057 162.189 492.698 160.909 492.324 160.909H486.791V167.949H486.805Z" fill="#293344"></path>
<path d="M188.555 158.229L188.515 160.363L188.062 160.923H178.849V166.949H186.888V169.296H178.849V176.668H188.555V179.015H175.822V158.243H188.555V158.229Z" fill="#293344"></path>
<path d="M255.591 158.229L255.537 160.363L255.084 160.923H245.871V166.949H253.911V169.296H245.871V176.668H255.591V179.015H242.858V158.243H255.591V158.229Z" fill="#293344"></path>
<path d="M365.838 158.229L365.798 160.363L365.345 160.923H356.132V166.949H364.172V169.296H356.132V176.668H365.838V179.015H353.105V158.243H365.838V158.229Z" fill="#293344"></path>
<path d="M464.699 158.229L464.646 160.363L464.192 160.923H454.98V166.949H463.019V169.296H454.98V176.668H464.699V179.015H451.953V158.243H464.699V158.229Z" fill="#293344"></path>
<path d="M215.38 174.308L222.473 158.282L225.432 158.229L216.753 178.801L214.86 179.014L205.66 158.215C206.727 158.349 208.287 157.776 208.98 158.749L215.38 174.308Z" fill="#293344"></path>
<path d="M392.97 160.909V179.001H389.957V160.909H383.091L382.637 160.349L382.584 158.216H399.85C400.636 158.856 400.596 160.296 399.85 160.896H392.97V160.909Z" fill="#293344"></path>
<path d="M426.821 160.909V179.001H423.808V160.909H416.942L416.488 160.349L416.435 158.216H433.701C434.487 158.856 434.447 160.296 433.701 160.896H426.821V160.909Z" fill="#293344"></path>
<path fill-rule="evenodd" clip-rule="evenodd" d="M218.047 77.9841L207.332 51.7289L206.384 51.7289L196.283 77.9841L218.047 77.9841ZM176.137 101.858C178.816 101.691 180.937 100.473 182.611 98.1464C183.671 96.7062 185.122 93.5489 187.131 88.6192L211.964 26.4707L215.089 26.4707L240.034 86.1266C242.825 92.7735 244.89 97.094 246.34 99.088C247.68 100.971 249.689 101.858 252.256 101.858L252.256 104.738L216.038 104.738L216.038 101.858C219.665 101.747 222.009 101.47 223.181 100.916C224.353 100.473 224.855 99.2542 224.911 97.2601C224.911 96.3739 224.632 95.0445 224.018 93.2166C223.683 92.1642 223.181 90.8902 222.567 89.3392L219.721 82.4708L194.609 82.4708L191.428 91.2779C190.423 94.1582 189.977 96.2631 189.977 97.6479C189.977 99.2542 191.037 100.417 193.214 101.193C194.497 101.581 196.395 101.802 198.962 101.858L198.962 104.738L176.137 104.738L176.137 101.858Z" fill="#293344"></path>
<path fill-rule="evenodd" clip-rule="evenodd" d="M300.3 62.5309C303.481 60.5369 305.044 55.9948 305.044 48.794C305.044 44.4181 304.43 40.9839 303.258 38.3805C301.193 34.0601 297.398 31.8998 291.874 31.8998C288.916 31.8998 286.963 32.2876 285.958 33.063C285.065 33.7831 284.675 35.0017 284.619 36.7742L284.619 65.6882C291.929 65.5774 297.119 64.5804 300.3 62.5863L300.3 62.5309ZM256.66 101.858C260.455 101.692 263.022 100.972 264.417 99.6982C265.757 98.4796 266.426 95.7654 266.482 91.5003L266.482 41.3162C266.482 36.9404 265.645 34.1154 264.027 32.7307C262.911 31.8444 260.455 31.2351 256.66 30.9028L256.66 28.0225L292.655 28.0225C300.077 28.0225 306.104 28.7979 310.792 30.4043C319.721 33.6169 324.241 39.3776 324.241 47.7416C324.241 53.89 322.009 58.709 317.544 62.3094C314.14 64.9681 310.568 66.6298 306.662 67.4053L329.152 99.7535C329.766 100.64 330.435 101.194 331.105 101.526C331.774 101.748 332.556 101.914 333.672 102.025L333.672 104.739L310.792 104.739L287.577 69.2332L284.619 69.2332L284.619 91.4449C284.619 95.4331 285.289 98.0918 286.572 99.532C287.911 100.861 290.534 101.581 294.441 101.803L294.441 104.683L256.66 104.683L256.66 101.803L256.66 101.858Z" fill="#293344"></path>
<path fill-rule="evenodd" clip-rule="evenodd" d="M584.886 42.1473C583.77 42.6458 582.542 42.9781 581.091 43.1443L581.091 43.3105L581.37 43.3105C584.049 43.3105 585.779 45.3599 586.56 49.4035C586.895 50.4559 587.23 50.9544 587.676 50.9544C588.011 50.9544 588.234 50.7882 588.401 50.4559C588.513 50.1236 588.625 49.5697 588.736 48.7388L590.355 48.7388C590.299 50.1236 589.852 51.3975 589.015 52.5054C588.234 53.6132 587.118 54.1117 585.667 54.1117C584.328 54.1117 583.379 53.724 582.654 52.8931C582.263 52.45 581.928 51.7299 581.649 50.7329C581.537 50.0128 581.426 49.5143 581.37 49.0711C581.37 48.6834 581.314 48.2957 581.258 47.9079C580.924 46.1354 580.142 44.9722 578.803 44.4183C578.077 44.1414 576.85 44.0306 575.176 44.0306L575.176 47.7971C575.176 49.2373 575.287 50.2343 575.622 50.7329C575.901 51.176 576.794 51.3975 578.189 51.4529L578.189 53.5024L567.474 53.5024L567.474 51.4529C568.925 51.4529 569.762 51.1206 570.041 50.4559C570.321 49.7912 570.432 47.9079 570.432 44.6399L570.432 41.0949C570.432 39.6547 570.432 38.4361 570.432 37.5498C570.432 36.4974 570.265 35.7773 569.874 35.3342C569.539 34.8911 568.758 34.6695 567.53 34.6695L567.53 32.6201C569.149 32.6201 571.66 32.6201 575.008 32.6201C578.356 32.6201 580.31 32.6201 580.756 32.6201C582.319 32.7308 583.714 33.0078 584.774 33.4509C586.895 34.3372 587.955 35.7773 587.955 37.8268C587.955 39.6547 586.951 41.0395 584.942 41.9811L584.886 42.1473ZM566.079 55.3303C569.428 58.543 573.446 60.0939 578.133 60.1493C582.709 60.1493 586.727 58.5984 590.02 55.4411C593.48 52.173 595.21 48.1849 595.21 43.3105C595.21 38.4361 593.591 34.7249 590.243 31.4015C586.895 28.078 582.877 26.4717 578.133 26.4717C573.39 26.4717 569.316 28.1334 565.968 31.5122C562.675 34.8357 561.057 38.7131 561.001 43.3105C561.001 48.0187 562.675 52.0622 566.079 55.3303ZM591.861 29.0751C595.935 32.897 597.944 37.6052 598 43.3105C598 48.8496 596.047 53.5578 592.029 57.3797C588.178 61.0909 583.546 62.9742 578.133 63.0296C572.553 63.0296 567.809 61.0909 563.903 57.269C560.052 53.447 558.155 48.8496 558.099 43.3659C558.099 37.8268 560.052 33.174 564.07 29.352C567.977 25.5854 572.609 23.7021 578.077 23.7021C583.323 23.7021 587.899 25.53 591.806 29.1304L591.861 29.0751ZM580.477 41.4826C581.984 40.9841 582.709 39.8763 582.765 38.1591C582.765 36.8852 582.151 35.9435 580.812 35.3342C579.975 34.9465 578.97 34.7803 577.798 34.7803C576.515 34.7803 575.789 35.1127 575.566 35.7773C575.343 36.442 575.231 38.4915 575.231 41.9811C577.798 41.9811 579.584 41.8149 580.477 41.4826Z" fill="#293344"></path>
<path fill-rule="evenodd" clip-rule="evenodd" d="M500.966 78.2616L504.203 78.2616C505.989 86.681 508.891 92.8294 513.02 96.7067C517.038 100.529 521.726 102.412 527.027 102.467C532.106 102.467 535.733 101.193 537.909 98.5346C540.03 95.8758 541.09 93.1063 541.146 90.1706C541.146 86.7918 540.03 84.0222 537.742 81.862C536.291 80.4772 533.278 78.6493 528.757 76.3783L521.503 72.7225C514.304 69.1221 509.225 65.5771 506.268 61.9767C503.31 58.4317 501.859 54.0558 501.859 48.8491C501.859 43.31 503.756 38.1586 507.719 33.3396C511.625 28.576 517.652 26.1942 525.744 26.1388C529.818 26.1388 533.78 26.7481 537.63 28.0221C541.481 29.2407 543.657 29.85 544.215 29.9054C545.443 29.9054 546.224 29.5731 546.782 28.853C547.229 28.1329 547.62 27.1913 547.954 25.9727L551.303 25.9727L551.303 50.677L548.178 50.677C546.727 44.9717 544.104 40.0419 540.253 35.8876C536.514 31.7887 531.994 29.7392 526.525 29.6838C522.73 29.6838 519.773 30.7363 517.54 32.8411C515.364 34.8906 514.248 37.3832 514.248 40.4297C514.248 43.9747 515.308 46.6334 517.373 48.4613C519.382 50.2338 523.902 52.8926 530.99 56.4376L539.416 60.6473C543.155 62.5306 546.057 64.58 548.345 66.9065C552.475 71.1715 554.595 76.3783 554.595 82.5267C554.595 88.2319 552.363 93.6048 547.899 98.7562C543.49 103.797 536.403 106.289 526.469 106.345C524.237 106.345 521.949 106.123 519.605 105.68C517.317 105.292 515.085 104.683 512.797 103.741L510.621 102.91C510.118 102.8 509.616 102.689 509.17 102.578C508.723 102.467 508.333 102.412 507.942 102.412C506.77 102.412 506.044 102.744 505.542 103.464C505.096 104.129 504.705 105.071 504.37 106.345L501.134 106.345L501.134 78.2062L500.966 78.2616Z" fill="#293344"></path>
<path fill-rule="evenodd" clip-rule="evenodd" d="M455.397 28.0225L455.397 30.9028C451.602 31.1243 449.091 31.4013 447.974 31.789C446.858 32.1214 446.356 32.8969 446.356 34.1154C446.356 34.614 446.356 35.1679 446.635 35.8326C446.858 36.3865 447.305 37.4389 448.03 39.1006L462.037 66.3529L462.986 66.3529L474.984 46.4122C475.765 45.1936 476.491 43.6981 477.384 41.9256C478.667 39.2668 479.225 37.2727 479.281 35.9433C479.281 33.9493 478.5 32.6199 476.937 31.9552C475.877 31.5121 473.589 31.1797 469.962 30.9028L469.962 28.0225L494.516 28.0225L494.516 30.9028C492.786 31.2351 491.335 31.6229 490.275 32.066C488.936 32.7307 487.875 33.7831 486.871 35.2787L465.497 70.618L465.497 91.5003C465.497 95.8208 466.223 98.5903 467.674 99.8643C469.069 101.083 471.803 101.748 475.877 101.858L475.877 104.739L437.037 104.739L437.037 101.858C441.166 101.748 443.901 101.028 445.296 99.6982C446.635 98.3688 447.305 95.6546 447.361 91.5003L447.361 74.8277L426.936 37.1066C425.652 34.6694 423.978 32.9522 421.969 31.8998C420.686 31.2905 419.346 30.9582 418.007 30.9028L418.007 28.0225L455.397 28.0225Z" fill="#293344"></path>
<path fill-rule="evenodd" clip-rule="evenodd" d="M337.4 101.858C341.53 101.748 344.208 100.972 345.436 99.4766C346.664 97.9811 347.222 95.7654 347.222 92.8297L347.222 39.0452C343.818 35.1679 341.753 32.8969 340.86 32.2322C340.079 31.5675 339.019 31.1243 337.568 30.9028L337.568 28.0225L361.285 28.0225L399.735 75.8801L400.293 75.8801L400.293 42.0917C400.293 38.2698 399.623 35.5556 398.228 33.8939C396.889 32.2322 394.154 31.2351 389.913 30.9028L389.913 28.0225L414.021 28.0225L414.021 30.9028C410.505 31.4567 408.161 32.2322 406.99 33.2846C405.818 34.2816 405.315 36.4973 405.26 39.9869L405.26 106.844L402.134 106.844L352.914 46.1353L352.133 46.1353L352.133 90.7249C352.133 94.1591 352.579 96.5963 353.528 98.0918C354.979 100.418 358.048 101.637 362.68 101.858L362.68 104.739L337.344 104.739L337.344 101.858L337.4 101.858Z" fill="#293344"></path>
<path fill-rule="evenodd" clip-rule="evenodd" d="M70.033 101.858C74.2743 101.858 77.0087 101.138 78.348 99.5874C79.6316 98.0918 80.1896 95.8762 80.2455 92.8297L80.2455 38.9344C80.2455 35.8326 79.52 33.8385 78.069 32.8415C76.6739 31.8444 74.1069 31.2351 70.3121 30.9028L70.3121 28.0225L98.4938 28.0225L120.481 80.5883L121.43 80.5883L143.306 28.0225L171.487 28.0225L171.487 30.9028C167.693 31.1797 165.125 31.8998 163.73 33.063C162.391 34.1708 161.721 36.885 161.666 41.3163L161.666 91.5003C161.666 95.6546 162.335 98.3688 163.73 99.6982C165.07 100.972 167.637 101.692 171.487 101.858L171.487 104.739L134.321 104.739L134.321 101.858C137.613 101.748 140.069 101.194 141.799 100.197C143.417 99.1996 144.254 96.984 144.31 93.4944L144.31 37.9928L143.473 37.9928L116.073 104.739L113.059 104.739L85.3795 39.3222L84.8773 39.3222L84.8773 90.7248C84.8773 94.4914 85.5469 97.2056 86.9421 98.9781C88.2814 100.695 91.3507 101.637 96.0942 101.858L96.0942 104.739L69.9214 104.739L69.9214 101.858L70.033 101.858Z" fill="#293344"></path>
</svg>