<?xml version="1.0" encoding="UTF-8"?>
<svg id="Capa_1" xmlns="http://www.w3.org/2000/svg" version="1.1" viewBox="0 0 3392.28 940.26">
  <!-- Generator: Adobe Illustrator 30.0.0, SVG Export Plug-In . SVG Version: 2.1.1 Build 123)  -->
  <defs>
    <style>
      .st0 {
        fill: #008438;
      }
    </style>
  </defs>
  <path class="st0" d="M1368.12,451.78c-31.32-10.95-55.54-25.41-72.62-43.38l19.07-37.46c16.64,16.65,38.77,30.12,66.37,40.42,27.59,10.3,56.07,15.44,85.43,15.44,41.17,0,72.06-7.55,92.66-22.66,20.59-15.11,30.89-34.72,30.89-58.82,0-18.4-5.59-33.06-16.75-44.03-11.18-10.95-24.87-19.39-41.07-25.31-16.21-5.91-38.77-12.36-67.68-19.39-34.62-8.76-62.22-17.19-82.81-25.3-20.6-8.11-38.22-20.47-52.9-37.14-14.68-16.64-22-39.2-22-67.68,0-23.22,6.12-44.36,18.4-63.42,12.26-19.06,31.1-34.27,56.52-45.67,25.4-11.4,56.95-17.09,94.64-17.07,26.28,0,52.02,3.62,77.22,10.83,25.18,7.23,46.98,17.22,65.39,29.91l-16.44,38.78c-19.29-12.71-39.86-22.24-61.78-28.6-21.91-6.35-43.38-9.54-64.4-9.54-40.31,0-70.65,7.78-91.02,23.32-20.37,15.56-30.57,35.6-30.57,60.13,0,18.4,5.59,33.18,16.77,44.36,11.17,11.18,25.18,19.72,42.05,25.63,16.86,5.92,39.53,12.39,68.01,19.41,33.73,8.33,61,16.54,81.81,24.64,20.8,8.13,38.45,20.37,52.9,36.81,14.45,16.42,21.68,38.67,21.68,66.7,0,23.22-6.25,44.36-18.74,63.42-12.48,19.06-31.65,34.17-57.5,45.34-25.86,11.18-57.61,16.75-95.29,16.75-34.17,0-66.93-5.47-98.25-16.44"/>
  <path class="st0" d="M1827.48,437.68c-37.02-20.37-65.94-48.31-86.74-83.79-20.82-35.5-31.2-75.36-31.2-119.62s10.4-84.11,31.22-119.6c20.8-35.48,49.73-63.4,86.76-83.77,37.01-20.37,78.31-30.56,123.87-30.56,45.57,0,86.64,10.08,123.22,30.25,36.58,20.15,65.38,48.07,86.41,83.79,21.03,35.71,31.54,75.68,31.54,119.93s-10.5,84.22-31.54,119.93c-21.05,35.7-49.86,63.63-86.42,83.79-36.59,20.14-77.67,30.21-123.23,30.21s-86.86-10.19-123.87-30.57M2049.93,400.24c29.35-16.42,52.35-39.2,69.01-68.34,16.64-29.13,24.98-61.66,24.98-97.59s-8.31-68.45-24.97-97.59c-16.65-29.13-39.65-51.91-68.99-68.34-29.38-16.42-62.22-24.65-98.58-24.65s-69.32,8.21-98.9,24.64c-29.58,16.42-52.8,39.21-69.66,68.34-16.88,29.14-25.31,61.66-25.31,97.58s8.41,68.47,25.3,97.6c16.86,29.14,40.06,51.91,69.64,68.34,29.58,16.44,62.54,24.65,98.9,24.65,36.36.01,69.21-8.2,98.58-24.64"/>
  <path class="st0" d="M2622.32,464.35l-105.14-147.87c-11.83,1.31-24.1,1.97-36.79,1.97h-123.57v145.88h-48.62l.03-460.03h172.17c58.69.03,104.71,14.06,138,42.08,33.29,28.06,49.93,66.62,49.93,115.67,0,35.93-9.09,66.27-27.26,91.02-18.2,24.75-44.17,42.6-77.91,53.56l112.37,157.72h-53.22.01ZM2583.55,246.82c24.1-20.14,36.16-48.41,36.17-84.77,0-37.24-12.07-65.82-36.15-85.76-24.1-19.94-58.92-29.91-104.49-29.91h-122.25v230.66h122.23c45.57,0,80.4-10.07,104.49-30.23"/>
  <polygon class="st0" points="2789.92 4.34 2838.54 4.34 2838.51 464.37 2789.89 464.36 2789.92 4.34"/>
  <path class="st0" d="M3283.41,341.51h-256.29l-55.21,122.87h-50.61L3131.64,4.36h47.96l210.28,460.05h-51.26l-55.21-122.9h0ZM3265.68,302.08l-110.38-247.1-110.43,247.09h220.81,0Z"/>
  <polygon class="st0" points="1661.58 536.55 1661.58 935.7 1585.74 935.7 1386.73 693.35 1386.73 935.7 1295.49 935.7 1295.49 536.55 1371.9 536.55 1570.34 778.88 1570.34 536.55 1661.58 536.55"/>
  <path class="st0" d="M1977.47,658.29c25.47,22.62,38.19,56.73,38.19,102.36v175.05h-83.23v-38.21c-16.74,28.51-47.92,42.76-93.53,42.76-23.57,0-44-3.99-61.3-11.97-17.29-7.98-30.5-19-39.62-33.08-9.12-14.06-13.69-30.02-13.69-47.89,0-28.51,10.73-50.94,32.21-67.28,21.48-16.35,54.64-24.53,99.51-24.53h70.71c0-19.38-5.91-34.3-17.68-44.76-11.8-10.44-29.46-15.67-53.03-15.67-16.35,0-32.41,2.56-48.18,7.69-15.79,5.13-29.19,12.07-40.21,20.82l-31.94-62.15c16.73-11.78,36.79-20.9,60.16-27.37,23.38-6.45,47.43-9.7,72.12-9.7,47.54,0,84.03,11.31,109.49,33.93M1901.63,869.84c11.77-7.03,20.15-17.39,25.1-31.07v-31.36h-61.01c-36.51,0-54.75,11.97-54.75,35.93,0,11.4,4.47,20.43,13.4,27.08,8.92,6.66,21.19,9.97,36.78,9.97s28.7-3.5,40.48-10.55"/>
  <path class="st0" d="M2288.22,920.87c-8.73,6.47-19.48,11.31-32.21,14.54-12.75,3.23-26.13,4.85-40.21,4.85-36.48,0-64.7-9.32-84.67-27.95-19.94-18.61-29.94-45.99-29.94-82.1v-126.01h-47.33v-68.43h47.33v-74.7h88.96v74.7h76.41v68.43h-76.41v124.88c0,12.92,3.31,22.89,9.97,29.92,6.64,7.04,16.06,10.56,28.24,10.56,14.06,0,26.02-3.8,35.92-11.41l23.94,62.73h0Z"/>
  <path class="st0" d="M2641.77,628.93v306.77h-84.41v-36.51c-11.77,13.31-25.85,23.48-42.2,30.51-16.34,7.03-34.01,10.55-53.03,10.55-40.28,0-72.22-11.58-95.79-34.78-23.57-23.18-35.35-57.6-35.35-103.21v-173.34h88.96v160.22c0,49.43,20.72,74.14,62.15,74.14,21.29,0,38.39-6.93,51.33-20.8,12.91-13.87,19.38-34.5,19.38-61.88v-151.67h88.96Z"/>
  <path class="st0" d="M2846.75,635.76c18.04-7.59,38.85-11.41,62.42-11.41v82.12c-9.88-.75-16.54-1.14-19.95-1.14-25.47,0-45.42,7.13-59.87,21.38-14.44,14.26-21.67,35.64-21.67,64.15v144.83h-88.96v-306.77h84.98v40.48c10.63-14.82,24.98-26.03,43.05-33.64"/>
  <path class="st0" d="M3188.03,658.29c25.47,22.62,38.19,56.73,38.19,102.36v175.05h-83.24v-38.21c-16.74,28.51-47.9,42.76-93.51,42.76-23.57,0-44-3.99-61.3-11.97s-30.5-19-39.62-33.08c-9.13-14.06-13.69-30.02-13.69-47.89,0-28.51,10.73-50.94,32.21-67.28,21.48-16.35,54.63-24.53,99.51-24.53h70.69c0-19.38-5.89-34.3-17.68-44.76-11.78-10.44-29.46-15.67-53.02-15.67-16.37,0-32.41,2.56-48.19,7.69-15.79,5.13-29.19,12.07-40.19,20.82l-31.95-62.15c16.74-11.78,36.81-20.9,60.18-27.37,23.38-6.45,47.41-9.7,72.12-9.7,47.53,0,84.02,11.31,109.49,33.93M3112.19,869.84c11.77-7.03,20.14-17.39,25.08-31.07v-31.36h-61c-36.51,0-54.75,11.97-54.75,35.93,0,11.4,4.45,20.43,13.4,27.08,8.92,6.66,21.19,9.97,36.77,9.97s28.7-3.5,40.5-10.55"/>
  <rect class="st0" x="3300.92" y="512.61" width="88.96" height="423.09"/>
  <path class="st0" d="M1221.1,274.91c-96.08-69.96-182.53-112.24-263.01-128.91C878.02,62.76,765,9.73,640.07,1.24c-173.89-11.9-330.27,62.21-418.32,198-73.53,113.38-97.49,259.78-64.07,391.6,1.11,4.42,5.09,7.36,9.44,7.36.79,0,1.6-.1,2.39-.3,5.23-1.33,8.37-6.63,7.06-11.84-32.11-126.66-9.11-267.3,61.53-376.21C322.26,80.08,472.04,9.28,638.74,20.68c110.24,7.49,210.74,51.03,285.9,119.88-136.56-16.45-256.68,43.22-379.08,169.49-8.14,8.41-26.13,29.35-47.38,54.01-28.83,33.44-63.65,73.75-88.15,99.03-156.86,161.81-259.26,222.45-395.04,183.15-12.45-3.6-20.62,11.54-10.27,19.07,96.67,70.38,183.58,112.72,264.48,129.17,79.48,83.03,190.87,135.85,313.85,144.44,12.23.86,24.38,1.28,36.43,1.28,160.03,0,302.25-74.57,385.43-203.91,72.84-113.24,96.45-259.13,63.19-390.25-1.34-5.22-6.61-8.37-11.84-7.04-5.22,1.33-8.37,6.63-7.04,11.84,31.97,125.97,9.28,266.12-60.68,374.9-85.55,133-236.56,205.37-404.13,193.74-108.45-7.56-207.45-50.98-281.92-119.66,136.01,15.92,255.76-43.78,377.78-169.67,19.18-19.79,92.94-109.09,135.51-153.01,156.87-161.84,259.28-222.47,395.07-183.17,12.45,3.6,20.62-11.55,10.27-19.07"/>
  <path class="st0" d="M3363.33,10.33c9,5.14,16.09,12.23,21.24,21.24,5.16,9.02,7.72,19,7.72,29.98s-2.64,21.02-7.88,30.14c-5.27,9.12-12.43,16.32-21.51,21.58-9.06,5.26-19.07,7.88-30.05,7.88s-20.96-2.62-29.97-7.88c-9.02-5.26-16.12-12.43-21.32-21.49-5.22-9.08-7.82-19.03-7.82-29.89s2.61-20.82,7.82-29.89c5.2-9.06,12.33-16.22,21.39-21.48,9.08-5.27,19.15-7.89,30.24-7.89s21.12,2.58,30.14,7.72M3359.03,106.71c7.85-4.6,14.02-10.86,18.57-18.8,4.52-7.95,6.8-16.74,6.8-26.36s-2.22-18.35-6.64-26.19c-4.42-7.84-10.53-14-18.31-18.47-7.77-4.48-16.54-6.73-26.26-6.73s-18.4,2.31-26.29,6.89c-7.89,4.6-14.06,10.83-18.54,18.73-4.48,7.89-6.73,16.6-6.73,26.1s2.25,18.22,6.73,26.1c4.48,7.89,10.63,14.13,18.47,18.73,7.82,4.6,16.5,6.89,26.02,6.89s18.35-2.29,26.19-6.89M3359.55,64.07c-2.46,3.57-5.95,6.15-10.42,7.72l15.29,23.67h-11.6l-13.93-21.49h-18.31v21.49h-11.41V28.3h26.87c8.4,0,15.01,2.07,19.9,6.21,4.87,4.15,7.3,9.7,7.3,16.63,0,5.04-1.24,9.35-3.69,12.94M3347.71,61.04c2.95-2.35,4.44-5.65,4.44-9.91s-1.48-7.52-4.44-9.83c-2.97-2.29-7.15-3.43-12.51-3.43h-14.78v26.7h14.78c5.36,0,9.54-1.18,12.51-3.53"/>
</svg>